<?xml version='1.0' encoding='iso-8859-1'?>
<!-- Uploaded to: SVG Repo, www.svgrepo.com, Generator: SVG Repo Mixer Tools -->
<svg fill="#000000" height="800px" width="800px" version="1.1" xmlns="http://www.w3.org/2000/svg" viewBox="0 0 214 214" xmlns:xlink="http://www.w3.org/1999/xlink" enable-background="new 0 0 214 214">
  <path d="M193,31h-22.357l-9.411-31H53.435l-9.411,31H21v33h13.012l-2.615,8.029L31,72.743V118h61v67H80v-36H44v36H33v29h147v-29h-59  v-67h14v12h36v-12h12V72.743L180.654,64H193V31z M82,94H52V78h30V94z M57.976,59l12.082-43h74.551l12.082,43H57.976z M162,94h-31V78  h31V94z"/>
</svg>